<?xml version="1.0" encoding="UTF-8" standalone="no"?>
<!-- Created with Inkscape (http://www.inkscape.org/) -->

<svg
   xmlns:dc="http://purl.org/dc/elements/1.1/"
   xmlns:cc="http://creativecommons.org/ns#"
   xmlns:rdf="http://www.w3.org/1999/02/22-rdf-syntax-ns#"
   xmlns:svg="http://www.w3.org/2000/svg"
   xmlns="http://www.w3.org/2000/svg"
   xmlns:sodipodi="http://sodipodi.sourceforge.net/DTD/sodipodi-0.dtd"
   xmlns:inkscape="http://www.inkscape.org/namespaces/inkscape"
   width="1189mm"
   height="841mm"
   viewBox="0 0 1189 841"
   version="1.1"
   id="svg8"
   inkscape:version="0.92.2 (5c3e80d, 2017-08-06)"
   sodipodi:docname="A0.svg">
  <defs
     id="defs2" />
  <sodipodi:namedview
     id="base"
     pagecolor="#1a8f14"
     bordercolor="#dee266"
     borderopacity="1"
     inkscape:pageopacity="0"
     inkscape:pageshadow="2"
     inkscape:zoom="0.20636449"
     inkscape:cx="804.74223"
     inkscape:cy="1940.5641"
     inkscape:document-units="mm"
     inkscape:current-layer="layer1"
     showgrid="false"
     objecttolerance="20"
     inkscape:window-width="1920"
     inkscape:window-height="1080"
     inkscape:window-x="2216"
     inkscape:window-y="643"
     inkscape:window-maximized="0"
     gridtolerance="10"
     inkscape:pagecheckerboard="true"
     inkscape:showpageshadow="true"
     showborder="true"
     units="mm" />
  <metadata
     id="metadata5">
    <rdf:RDF>
      <cc:Work
         rdf:about="">
        <dc:format>image/svg+xml</dc:format>
        <dc:type
           rdf:resource="http://purl.org/dc/dcmitype/StillImage" />
        <dc:title></dc:title>
      </cc:Work>
    </rdf:RDF>
  </metadata>
  <g
     inkscape:label="Layer 1"
     inkscape:groupmode="layer"
     id="layer1"
     transform="translate(0,544)">
    <rect
       style="fill:#09c12f;fill-opacity:1;stroke:#33de20;stroke-width:3.96196795;stroke-linejoin:round;stroke-miterlimit:4;stroke-dasharray:none;stroke-opacity:1"
       id="rect5822"
       width="1190.8706"
       height="840.91724"
       x="3.4008679"
       y="-541.39124" />
    <path
       style="fill:none;stroke:#000000;stroke-width:0.26458332px;stroke-linecap:butt;stroke-linejoin:miter;stroke-opacity:1"
       d="m 226.34866,295.463 c 1.85226,0.99091 1.85226,0.99091 0,0"
       id="path4638"
       inkscape:connector-curvature="0" />
    <path
       id="path3699-7-1-2"
       style="fill:none;stroke:#1a1a1a;stroke-width:230;stroke-miterlimit:4;stroke-dasharray:none;stroke-opacity:1"
       sodipodi:type="arc"
       sodipodi:cx="329.08136"
       sodipodi:cy="-42.622147"
       sodipodi:rx="201.18982"
       sodipodi:ry="201.18982"
       sodipodi:start="0.44149148"
       sodipodi:end="5.2431131"
       d="M 510.98017,43.343931 A 201.18982,201.18982 0 0 1 314.7887,158.05935 201.18982,201.18982 0 0 1 136.83524,16.6971 a 201.18982,201.18982 0 0 1 67.36033,-217.056 201.18982,201.18982 0 0 1 226.71962,-15.77755"
       sodipodi:open="true" />
    <path
       style="fill:none;stroke:#000000;stroke-width:0.26458332px;stroke-linecap:butt;stroke-linejoin:miter;stroke-opacity:1"
       d="m 443.51568,-231.23528 c 2.18718,3.73246 13.17983,20.84024 0,0"
       id="path894"
       inkscape:connector-curvature="0" />
    <path
       id="path3699-7-1-2-6"
       style="fill:none;stroke:#1a1a1a;stroke-width:230;stroke-miterlimit:4;stroke-dasharray:none;stroke-opacity:1"
       sodipodi:type="arc"
       sodipodi:cx="870.10333"
       sodipodi:cy="-207.04285"
       sodipodi:rx="201.18982"
       sodipodi:ry="201.18982"
       sodipodi:start="3.5802801"
       sodipodi:end="2.1053435"
       d="m 687.96419,-292.49854 a 201.18982,201.18982 0 0 1 196.20156,-115.24207 201.18982,201.18982 0 0 1 178.21395,141.47648 201.18982,201.18982 0 0 1 -67.73257,217.228201 201.18982,201.18982 0 0 1 -227.04024,15.116803"
       sodipodi:open="true" />
    <path
       style="fill:none;stroke:#1a1a1a;stroke-width:230;stroke-linecap:butt;stroke-linejoin:miter;stroke-miterlimit:4;stroke-dasharray:none;stroke-opacity:1"
       d="M 691.91181,-300.45126 506.96584,51.36959"
       id="path870"
       inkscape:connector-curvature="0" />
    <path
       style="fill:none;stroke:#1a1a1a;stroke-width:230;stroke-linecap:butt;stroke-linejoin:miter;stroke-miterlimit:4;stroke-dasharray:none;stroke-opacity:1"
       d="M 425.70989,-219.0882 773.83713,-30.378881"
       id="path876"
       inkscape:connector-curvature="0" />
    <path
       id="path3699-7-1-2-4"
       style="fill:none;stroke:#ffffff;stroke-width:8;stroke-miterlimit:4;stroke-dasharray:none;stroke-opacity:1"
       sodipodi:type="arc"
       sodipodi:cx="329.08136"
       sodipodi:cy="-42.622147"
       sodipodi:rx="201.18982"
       sodipodi:ry="201.18982"
       sodipodi:start="0.44149148"
       sodipodi:end="5.2431131"
       d="M 510.98017,43.343931 A 201.18982,201.18982 0 0 1 314.7887,158.05935 201.18982,201.18982 0 0 1 136.83524,16.6971 a 201.18982,201.18982 0 0 1 67.36033,-217.056 201.18982,201.18982 0 0 1 226.71962,-15.77755"
       sodipodi:open="true" />
    <path
       id="path3699-7-1-2-6-3"
       style="fill:none;stroke:#ffffff;stroke-width:8;stroke-miterlimit:4;stroke-dasharray:none;stroke-opacity:1"
       sodipodi:type="arc"
       sodipodi:cx="870.10333"
       sodipodi:cy="-207.04285"
       sodipodi:rx="201.18982"
       sodipodi:ry="201.18982"
       sodipodi:start="3.5802801"
       sodipodi:end="2.1053435"
       d="m 687.96419,-292.49854 a 201.18982,201.18982 0 0 1 196.20156,-115.24207 201.18982,201.18982 0 0 1 178.21395,141.47648 201.18982,201.18982 0 0 1 -67.73257,217.228201 201.18982,201.18982 0 0 1 -227.04024,15.116803"
       sodipodi:open="true" />
    <path
       style="fill:none;stroke:#ffffff;stroke-width:8;stroke-linecap:butt;stroke-linejoin:miter;stroke-miterlimit:4;stroke-dasharray:none;stroke-opacity:1"
       d="M 506.96584,51.36959 691.91181,-300.45126"
       id="path910"
       inkscape:connector-curvature="0" />
    <path
       style="fill:none;stroke:#ffffff;stroke-width:8;stroke-linecap:butt;stroke-linejoin:miter;stroke-miterlimit:4;stroke-dasharray:none;stroke-opacity:1"
       d="M 430.91517,-216.13646 767.60688,-33.919138"
       id="path914"
       inkscape:connector-curvature="0" />
    <circle
       style="fill:none;fill-opacity:1;stroke:#1a1a1a;stroke-width:4;stroke-linejoin:round;stroke-miterlimit:4;stroke-dasharray:none;stroke-opacity:1"
       id="path929"
       cx="599.48993"
       cy="-124.28168"
       r="6.0958581" />
  </g>
</svg>
